<mxfile host="app.diagrams.net" modified="2024-02-29T00:35:33.433Z" agent="Mozilla/5.0 (X11; Linux x86_64) AppleWebKit/537.36 (KHTML, like Gecko) Chrome/121.0.0.0 Safari/537.36" version="23.1.8" etag="CnxTpFXor8tPugI338Ft" type="github">
  <diagram name="Page-1" id="zxdi7CtqLlzl1TNidTwc">
    <mxGraphModel>
      <root>
        <mxCell id="0" />
        <mxCell id="1" parent="0" />
      </root>
    </mxGraphModel>
  </diagram>
</mxfile>
